@startuml model
' left to right direction
skinparam linetype ortho

package pl.lodz.p.it.ssbd2022.ssbd03.entities {
' mok
    AccessLevel "*" <-- "1" Account : - account
    Account "0..1" <-- "0..1" AccessLevel : - accessLevels

    AccessLevel <|-- DataClient
    AccessLevel <|-- DataSpecialist
    AccessLevel <|-- DataAdministrator

' mop
    Appointment "1" o- "1" Account : - specialist
    Appointment "1" o- "1" Account : - client
    Appointment "1" o-- "1" Implant : - implant
    Review "1" o- "1" Implant : - implant
    Review "1" o--- "*" Account : - author
    Appointment <-- Status : - status
}

package pl.lodz.p.it.ssbd2022.ssbd03.common {
    AbstractEntity <|- Account 
    AbstractEntity <|-- AccessLevel
    AbstractEntity <|- Implant
    AbstractEntity <|--- Appointment
    AbstractEntity <|--- Review
}


abstract class AbstractEntity <<MappedSuperClass>> {
    -UUID id
    -Long version
    -Instant createdAt
    -Instant lastModified

    +hashCode(): int
    +equals(object: AbstractEntity): boolean
    +getId(): UUID
    +getVersion(): Long
}

class Implant {
    {static} long serialVersionUID = 1L
    -String name
    -String description
    -String manufacturer
    -Integer price
    -boolean archived
    -Integer popularity
    -Duration duration
}

class Review {
    {static} long serialVersionUID = 1L
    -Implant implant
    -DataClient author
    -String text
    -Date date
}

class Appointment {
    {static} long serialVersionUID = 1L
    -Account specialist
    -Account client
    -Implant implant
    -DateTime startDate
    -DateTime endDate
    -Integer price
    -String description
    -Status status
}

enum Status {
    ACCEPTED
    REJECTED
    PENDING
    FINNISHED
}

class Account {
    {static} long serialVersionUID = 1L
    -String login
    -String password
    -boolean active
    -boolean confirmed
    -List<AccessLevel> accessLevels
    .. secondary_table ..
    -String email
    -String firstName
    -String lastName
    -Locale language

    +addAccessLevel(accessLevel: AccessLevel): void
    +removeAccessLevel(accessLevel: AccessLevel): void
}

abstract class AccessLevel {
    {static} long serialVersionUID = 1L
    -String accessLevel
    -boolean active
    -Account account
}

class DataClient {
    {static} long serialVersionUID = 1L
    -String phoneNumber
    -String pesel
}

class DataSpecialist {
    {static} long serialVersionUID = 1L
    -String phoneNumber
    -String contactEmail
}

class DataAdministrator {
    {static} long serialVersionUID = 1L
    -String phoneNumber
    -String contactEmail
}

@enduml
